<mxfile host="app.diagrams.net" modified="2024-03-03T13:05:53.354Z" agent="Mozilla/5.0 (Windows NT 10.0; Win64; x64) AppleWebKit/537.36 (KHTML, like Gecko) Chrome/121.0.0.0 Safari/537.36" etag="RowBvwhAkF0GeSvWwbSU" version="24.0.1" type="github">
  <diagram id="C5RBs43oDa-KdzZeNtuy" name="Page-1">
    <mxGraphModel dx="1248" dy="1097" grid="1" gridSize="10" guides="1" tooltips="1" connect="1" arrows="1" fold="1" page="1" pageScale="1" pageWidth="827" pageHeight="1169" math="0" shadow="0">
      <root>
        <mxCell id="WIyWlLk6GJQsqaUBKTNV-0" />
        <mxCell id="WIyWlLk6GJQsqaUBKTNV-1" parent="WIyWlLk6GJQsqaUBKTNV-0" />
        <mxCell id="f26DTYK5r1eWWfR7GQ5q-146" value="" style="rounded=1;whiteSpace=wrap;html=1;dashed=1;dashPattern=12 12;fillColor=none;" parent="WIyWlLk6GJQsqaUBKTNV-1" vertex="1">
          <mxGeometry x="390" y="599" width="640" height="321" as="geometry" />
        </mxCell>
        <mxCell id="f26DTYK5r1eWWfR7GQ5q-142" value="" style="rounded=1;whiteSpace=wrap;html=1;dashed=1;dashPattern=12 12;fillColor=none;" parent="WIyWlLk6GJQsqaUBKTNV-1" vertex="1">
          <mxGeometry x="580" y="730" width="260" height="80" as="geometry" />
        </mxCell>
        <mxCell id="f26DTYK5r1eWWfR7GQ5q-94" value="" style="rounded=1;whiteSpace=wrap;html=1;dashed=1;dashPattern=12 12;fillColor=none;" parent="WIyWlLk6GJQsqaUBKTNV-1" vertex="1">
          <mxGeometry x="550" y="80" width="570" height="340" as="geometry" />
        </mxCell>
        <mxCell id="WIyWlLk6GJQsqaUBKTNV-7" value="Tx.R.Min=SD" style="rounded=1;whiteSpace=wrap;html=1;fontSize=12;glass=0;strokeWidth=1;shadow=0;" parent="WIyWlLk6GJQsqaUBKTNV-1" vertex="1">
          <mxGeometry x="960" y="110" width="120" height="40" as="geometry" />
        </mxCell>
        <mxCell id="f26DTYK5r1eWWfR7GQ5q-36" value="Tx.R in&amp;nbsp;&lt;div&gt;(CR,&lt;span style=&quot;background-color: initial;&quot;&gt;&amp;nbsp;PR,&amp;nbsp;&lt;/span&gt;&lt;span style=&quot;background-color: initial;&quot;&gt;SD)?&lt;/span&gt;&lt;/div&gt;" style="rhombus;whiteSpace=wrap;html=1;shadow=0;fontFamily=Helvetica;fontSize=12;align=center;strokeWidth=1;spacing=6;spacingTop=-4;" parent="WIyWlLk6GJQsqaUBKTNV-1" vertex="1">
          <mxGeometry x="600" y="90" width="100" height="80" as="geometry" />
        </mxCell>
        <mxCell id="f26DTYK5r1eWWfR7GQ5q-37" value="ADY&amp;gt;=X Days?" style="rhombus;whiteSpace=wrap;html=1;shadow=0;fontFamily=Helvetica;fontSize=12;align=center;strokeWidth=1;spacing=6;spacingTop=-4;" parent="WIyWlLk6GJQsqaUBKTNV-1" vertex="1">
          <mxGeometry x="780" y="90" width="100" height="80" as="geometry" />
        </mxCell>
        <mxCell id="f26DTYK5r1eWWfR7GQ5q-38" value="Yes" style="edgeStyle=orthogonalEdgeStyle;rounded=0;html=1;jettySize=auto;orthogonalLoop=1;fontSize=11;endArrow=block;endFill=0;endSize=8;strokeWidth=1;shadow=0;labelBackgroundColor=none;" parent="WIyWlLk6GJQsqaUBKTNV-1" edge="1">
          <mxGeometry x="-0.208" y="10" relative="1" as="geometry">
            <mxPoint as="offset" />
            <mxPoint x="700" y="129.5" as="sourcePoint" />
            <mxPoint x="780" y="129.5" as="targetPoint" />
          </mxGeometry>
        </mxCell>
        <mxCell id="f26DTYK5r1eWWfR7GQ5q-39" value="No" style="rounded=0;html=1;jettySize=auto;orthogonalLoop=1;fontSize=11;endArrow=block;endFill=0;endSize=8;strokeWidth=1;shadow=0;labelBackgroundColor=none;edgeStyle=orthogonalEdgeStyle;" parent="WIyWlLk6GJQsqaUBKTNV-1" edge="1">
          <mxGeometry y="20" relative="1" as="geometry">
            <mxPoint as="offset" />
            <mxPoint x="650" y="170" as="sourcePoint" />
            <mxPoint x="650" y="230" as="targetPoint" />
          </mxGeometry>
        </mxCell>
        <mxCell id="f26DTYK5r1eWWfR7GQ5q-42" value="Yes" style="edgeStyle=orthogonalEdgeStyle;rounded=0;html=1;jettySize=auto;orthogonalLoop=1;fontSize=11;endArrow=block;endFill=0;endSize=8;strokeWidth=1;shadow=0;labelBackgroundColor=none;" parent="WIyWlLk6GJQsqaUBKTNV-1" edge="1">
          <mxGeometry x="-0.208" y="10" relative="1" as="geometry">
            <mxPoint as="offset" />
            <mxPoint x="880" y="129.5" as="sourcePoint" />
            <mxPoint x="960" y="129.5" as="targetPoint" />
          </mxGeometry>
        </mxCell>
        <mxCell id="f26DTYK5r1eWWfR7GQ5q-45" value="Tx.R=PD?" style="rhombus;whiteSpace=wrap;html=1;shadow=0;fontFamily=Helvetica;fontSize=12;align=center;strokeWidth=1;spacing=6;spacingTop=-4;" parent="WIyWlLk6GJQsqaUBKTNV-1" vertex="1">
          <mxGeometry x="600" y="230" width="100" height="80" as="geometry" />
        </mxCell>
        <mxCell id="f26DTYK5r1eWWfR7GQ5q-46" value="Yes" style="edgeStyle=orthogonalEdgeStyle;rounded=0;html=1;jettySize=auto;orthogonalLoop=1;fontSize=11;endArrow=block;endFill=0;endSize=8;strokeWidth=1;shadow=0;labelBackgroundColor=none;" parent="WIyWlLk6GJQsqaUBKTNV-1" edge="1">
          <mxGeometry x="-0.208" y="10" relative="1" as="geometry">
            <mxPoint as="offset" />
            <mxPoint x="700" y="269.5" as="sourcePoint" />
            <mxPoint x="780" y="269.5" as="targetPoint" />
          </mxGeometry>
        </mxCell>
        <mxCell id="f26DTYK5r1eWWfR7GQ5q-49" value="No" style="rounded=0;html=1;jettySize=auto;orthogonalLoop=1;fontSize=11;endArrow=block;endFill=0;endSize=8;strokeWidth=1;shadow=0;labelBackgroundColor=none;edgeStyle=orthogonalEdgeStyle;" parent="WIyWlLk6GJQsqaUBKTNV-1" edge="1">
          <mxGeometry y="21" relative="1" as="geometry">
            <mxPoint as="offset" />
            <mxPoint x="649.5" y="310" as="sourcePoint" />
            <mxPoint x="649.5" y="370" as="targetPoint" />
          </mxGeometry>
        </mxCell>
        <mxCell id="f26DTYK5r1eWWfR7GQ5q-50" value="Tx.R.Min=PD" style="rounded=1;whiteSpace=wrap;html=1;fontSize=12;glass=0;strokeWidth=1;shadow=0;" parent="WIyWlLk6GJQsqaUBKTNV-1" vertex="1">
          <mxGeometry x="780" y="250" width="120" height="40" as="geometry" />
        </mxCell>
        <mxCell id="f26DTYK5r1eWWfR7GQ5q-51" value="Tx.R.Min=NE" style="rounded=1;whiteSpace=wrap;html=1;fontSize=12;glass=0;strokeWidth=1;shadow=0;" parent="WIyWlLk6GJQsqaUBKTNV-1" vertex="1">
          <mxGeometry x="590" y="370" width="120" height="40" as="geometry" />
        </mxCell>
        <mxCell id="f26DTYK5r1eWWfR7GQ5q-52" value="No" style="rounded=0;html=1;jettySize=auto;orthogonalLoop=1;fontSize=11;endArrow=block;endFill=0;endSize=8;strokeWidth=1;shadow=0;labelBackgroundColor=none;edgeStyle=orthogonalEdgeStyle;entryX=1;entryY=0.5;entryDx=0;entryDy=0;" parent="WIyWlLk6GJQsqaUBKTNV-1" target="f26DTYK5r1eWWfR7GQ5q-51" edge="1">
          <mxGeometry x="-0.7724" y="11" relative="1" as="geometry">
            <mxPoint as="offset" />
            <mxPoint x="829.5" y="170" as="sourcePoint" />
            <mxPoint x="829.5" y="230" as="targetPoint" />
            <Array as="points">
              <mxPoint x="830" y="171" />
              <mxPoint x="930" y="171" />
              <mxPoint x="930" y="390" />
            </Array>
          </mxGeometry>
        </mxCell>
        <mxCell id="f26DTYK5r1eWWfR7GQ5q-55" value="At T2" style="rounded=1;whiteSpace=wrap;html=1;fontSize=12;glass=0;strokeWidth=1;shadow=0;" parent="WIyWlLk6GJQsqaUBKTNV-1" vertex="1">
          <mxGeometry x="390" y="220" width="120" height="40" as="geometry" />
        </mxCell>
        <mxCell id="f26DTYK5r1eWWfR7GQ5q-56" value="T2.R&amp;gt;=T1.R?" style="rhombus;whiteSpace=wrap;html=1;shadow=0;fontFamily=Helvetica;fontSize=12;align=center;strokeWidth=1;spacing=6;spacingTop=-4;" parent="WIyWlLk6GJQsqaUBKTNV-1" vertex="1">
          <mxGeometry x="400" y="320" width="100" height="80" as="geometry" />
        </mxCell>
        <mxCell id="f26DTYK5r1eWWfR7GQ5q-57" value="" style="rounded=0;html=1;jettySize=auto;orthogonalLoop=1;fontSize=11;endArrow=block;endFill=0;endSize=8;strokeWidth=1;shadow=0;labelBackgroundColor=none;edgeStyle=orthogonalEdgeStyle;" parent="WIyWlLk6GJQsqaUBKTNV-1" edge="1">
          <mxGeometry x="0.3333" y="20" relative="1" as="geometry">
            <mxPoint as="offset" />
            <mxPoint x="449.5" y="260" as="sourcePoint" />
            <mxPoint x="449.5" y="320" as="targetPoint" />
          </mxGeometry>
        </mxCell>
        <mxCell id="f26DTYK5r1eWWfR7GQ5q-58" value="Yes" style="rounded=0;html=1;jettySize=auto;orthogonalLoop=1;fontSize=11;endArrow=block;endFill=0;endSize=8;strokeWidth=1;shadow=0;labelBackgroundColor=none;edgeStyle=orthogonalEdgeStyle;" parent="WIyWlLk6GJQsqaUBKTNV-1" edge="1">
          <mxGeometry x="0.3333" y="20" relative="1" as="geometry">
            <mxPoint as="offset" />
            <mxPoint x="450" y="400" as="sourcePoint" />
            <mxPoint x="450" y="460" as="targetPoint" />
          </mxGeometry>
        </mxCell>
        <mxCell id="f26DTYK5r1eWWfR7GQ5q-66" value="BestResp=T1" style="rounded=1;whiteSpace=wrap;html=1;fontSize=12;glass=0;strokeWidth=1;shadow=0;fillColor=#CCCCCC;" parent="WIyWlLk6GJQsqaUBKTNV-1" vertex="1">
          <mxGeometry x="588" y="480" width="120" height="40" as="geometry" />
        </mxCell>
        <mxCell id="f26DTYK5r1eWWfR7GQ5q-74" value="No" style="edgeStyle=orthogonalEdgeStyle;rounded=0;html=1;jettySize=auto;orthogonalLoop=1;fontSize=11;endArrow=block;endFill=0;endSize=8;strokeWidth=1;shadow=0;labelBackgroundColor=none;entryX=0;entryY=0.5;entryDx=0;entryDy=0;exitX=0;exitY=0.5;exitDx=0;exitDy=0;" parent="WIyWlLk6GJQsqaUBKTNV-1" source="f26DTYK5r1eWWfR7GQ5q-56" edge="1">
          <mxGeometry x="-0.8623" y="-10" relative="1" as="geometry">
            <mxPoint as="offset" />
            <mxPoint x="400" y="479.49" as="sourcePoint" />
            <mxPoint x="388.97" y="810" as="targetPoint" />
            <Array as="points">
              <mxPoint x="329" y="360" />
              <mxPoint x="329" y="810" />
            </Array>
          </mxGeometry>
        </mxCell>
        <mxCell id="f26DTYK5r1eWWfR7GQ5q-81" value="&lt;font style=&quot;font-size: 8px;&quot;&gt;T2.R in&lt;/font&gt;&lt;div style=&quot;font-size: 8px;&quot;&gt;&lt;font style=&quot;font-size: 8px;&quot;&gt;&amp;nbsp;(CR, PR)&lt;/font&gt;&lt;/div&gt;&lt;div style=&quot;font-size: 8px;&quot;&gt;&lt;font style=&quot;font-size: 8px;&quot;&gt;and&amp;nbsp;&lt;span style=&quot;background-color: initial;&quot;&gt;T1.R in&lt;/span&gt;&lt;/font&gt;&lt;font style=&quot;background-color: initial;&quot;&gt;&amp;nbsp;(CR, PR)&amp;nbsp;&lt;/font&gt;&lt;span style=&quot;background-color: initial;&quot;&gt;and&amp;nbsp;&lt;/span&gt;&lt;span style=&quot;background-color: initial;&quot;&gt;T2-T1&amp;gt;=X Days?&lt;/span&gt;&lt;/div&gt;&lt;div style=&quot;font-size: 8px;&quot;&gt;&lt;br&gt;&lt;/div&gt;" style="rhombus;whiteSpace=wrap;html=1;shadow=0;fontFamily=Helvetica;fontSize=12;align=center;strokeWidth=1;spacing=6;spacingTop=-4;" parent="WIyWlLk6GJQsqaUBKTNV-1" vertex="1">
          <mxGeometry x="400" y="460" width="100" height="80" as="geometry" />
        </mxCell>
        <mxCell id="f26DTYK5r1eWWfR7GQ5q-95" value="&lt;div style=&quot;text-align: center;&quot;&gt;&lt;span style=&quot;background-color: initial;&quot;&gt;Tx.R Minimum Check&lt;/span&gt;&lt;/div&gt;&lt;div style=&quot;text-align: center;&quot;&gt;&lt;span style=&quot;background-color: initial;&quot;&gt;Workflow&lt;/span&gt;&lt;/div&gt;" style="text;whiteSpace=wrap;html=1;fillColor=#647687;strokeColor=#314354;fontColor=#ffffff;" parent="WIyWlLk6GJQsqaUBKTNV-1" vertex="1">
          <mxGeometry x="980" y="365" width="120" height="40" as="geometry" />
        </mxCell>
        <mxCell id="f26DTYK5r1eWWfR7GQ5q-97" value="Yes" style="edgeStyle=orthogonalEdgeStyle;rounded=0;html=1;jettySize=auto;orthogonalLoop=1;fontSize=11;endArrow=block;endFill=0;endSize=8;strokeWidth=1;shadow=0;labelBackgroundColor=none;entryX=0;entryY=0.5;entryDx=0;entryDy=0;" parent="WIyWlLk6GJQsqaUBKTNV-1" edge="1">
          <mxGeometry x="-0.208" y="10" relative="1" as="geometry">
            <mxPoint as="offset" />
            <mxPoint x="500" y="499.5" as="sourcePoint" />
            <mxPoint x="587" y="500" as="targetPoint" />
          </mxGeometry>
        </mxCell>
        <mxCell id="f26DTYK5r1eWWfR7GQ5q-120" value="" style="rounded=0;html=1;jettySize=auto;orthogonalLoop=1;fontSize=11;endArrow=block;endFill=0;endSize=8;strokeWidth=1;shadow=0;labelBackgroundColor=none;edgeStyle=orthogonalEdgeStyle;" parent="WIyWlLk6GJQsqaUBKTNV-1" edge="1">
          <mxGeometry x="0.3333" y="20" relative="1" as="geometry">
            <mxPoint as="offset" />
            <mxPoint x="709" y="810" as="sourcePoint" />
            <mxPoint x="709.17" y="860" as="targetPoint" />
          </mxGeometry>
        </mxCell>
        <mxCell id="f26DTYK5r1eWWfR7GQ5q-129" value="&lt;font style=&quot;font-size: 11px;&quot;&gt;T2.R Minimum&lt;/font&gt;&lt;div style=&quot;font-size: 11px;&quot;&gt;&lt;font style=&quot;font-size: 11px;&quot;&gt;Check?&lt;/font&gt;&lt;/div&gt;" style="rhombus;whiteSpace=wrap;html=1;shadow=0;fontFamily=Helvetica;fontSize=12;align=center;strokeWidth=1;spacing=6;spacingTop=-4;" parent="WIyWlLk6GJQsqaUBKTNV-1" vertex="1">
          <mxGeometry x="410" y="730" width="100" height="80" as="geometry" />
        </mxCell>
        <mxCell id="f26DTYK5r1eWWfR7GQ5q-130" value="" style="edgeStyle=orthogonalEdgeStyle;rounded=0;html=1;jettySize=auto;orthogonalLoop=1;fontSize=11;endArrow=block;endFill=0;endSize=8;strokeWidth=1;shadow=0;labelBackgroundColor=none;entryX=0;entryY=0.5;entryDx=0;entryDy=0;" parent="WIyWlLk6GJQsqaUBKTNV-1" target="f26DTYK5r1eWWfR7GQ5q-131" edge="1">
          <mxGeometry x="-0.208" y="10" relative="1" as="geometry">
            <mxPoint as="offset" />
            <mxPoint x="507.5" y="769.58" as="sourcePoint" />
            <mxPoint x="587" y="770.08" as="targetPoint" />
            <Array as="points" />
          </mxGeometry>
        </mxCell>
        <mxCell id="f26DTYK5r1eWWfR7GQ5q-131" value="T2.R.Min in&amp;nbsp;&lt;div&gt;(SD, PD, NE)&lt;/div&gt;" style="rounded=1;whiteSpace=wrap;html=1;fontSize=12;glass=0;strokeWidth=1;shadow=0;" parent="WIyWlLk6GJQsqaUBKTNV-1" vertex="1">
          <mxGeometry x="580" y="750" width="120" height="40" as="geometry" />
        </mxCell>
        <mxCell id="f26DTYK5r1eWWfR7GQ5q-134" value="&lt;font style=&quot;font-size: 11px;&quot;&gt;T1.R Minimum&lt;/font&gt;&lt;div style=&quot;font-size: 11px;&quot;&gt;&lt;font style=&quot;font-size: 11px;&quot;&gt;Check?&lt;/font&gt;&lt;/div&gt;" style="rhombus;whiteSpace=wrap;html=1;shadow=0;fontFamily=Helvetica;fontSize=12;align=center;strokeWidth=1;spacing=6;spacingTop=-4;" parent="WIyWlLk6GJQsqaUBKTNV-1" vertex="1">
          <mxGeometry x="905" y="730" width="100" height="80" as="geometry" />
        </mxCell>
        <mxCell id="f26DTYK5r1eWWfR7GQ5q-136" value="T1.R.Min in&amp;nbsp;&lt;div&gt;(SD, PD, NE)&lt;/div&gt;" style="rounded=1;whiteSpace=wrap;html=1;fontSize=12;glass=0;strokeWidth=1;shadow=0;" parent="WIyWlLk6GJQsqaUBKTNV-1" vertex="1">
          <mxGeometry x="720" y="750" width="120" height="40" as="geometry" />
        </mxCell>
        <mxCell id="f26DTYK5r1eWWfR7GQ5q-139" value="No" style="rounded=0;html=1;jettySize=auto;orthogonalLoop=1;fontSize=11;endArrow=block;endFill=0;endSize=8;strokeWidth=1;shadow=0;labelBackgroundColor=none;edgeStyle=orthogonalEdgeStyle;" parent="WIyWlLk6GJQsqaUBKTNV-1" edge="1">
          <mxGeometry x="-0.3333" y="10" relative="1" as="geometry">
            <mxPoint as="offset" />
            <mxPoint x="450" y="540" as="sourcePoint" />
            <mxPoint x="450" y="600" as="targetPoint" />
          </mxGeometry>
        </mxCell>
        <mxCell id="f26DTYK5r1eWWfR7GQ5q-140" value="" style="edgeStyle=orthogonalEdgeStyle;rounded=0;html=1;jettySize=auto;orthogonalLoop=1;fontSize=11;endArrow=block;endFill=0;endSize=8;strokeWidth=1;shadow=0;labelBackgroundColor=none;exitX=0;exitY=0.5;exitDx=0;exitDy=0;" parent="WIyWlLk6GJQsqaUBKTNV-1" source="f26DTYK5r1eWWfR7GQ5q-134" edge="1">
          <mxGeometry x="-0.1123" y="-10" relative="1" as="geometry">
            <mxPoint as="offset" />
            <mxPoint x="820" y="769.5" as="sourcePoint" />
            <mxPoint x="840" y="770" as="targetPoint" />
          </mxGeometry>
        </mxCell>
        <mxCell id="f26DTYK5r1eWWfR7GQ5q-144" value="BestResp=&lt;div&gt;Max(T2.R.Min,T1.R&lt;span style=&quot;background-color: initial;&quot;&gt;.Min&lt;/span&gt;&lt;span style=&quot;background-color: initial;&quot;&gt;)&lt;/span&gt;&lt;/div&gt;" style="rounded=1;whiteSpace=wrap;html=1;fontSize=12;glass=0;strokeWidth=1;shadow=0;fillStyle=auto;fillColor=#CCCCCC;" parent="WIyWlLk6GJQsqaUBKTNV-1" vertex="1">
          <mxGeometry x="640" y="860" width="130" height="40" as="geometry" />
        </mxCell>
        <mxCell id="f26DTYK5r1eWWfR7GQ5q-150" value="" style="rounded=0;html=1;jettySize=auto;orthogonalLoop=1;fontSize=11;endArrow=block;endFill=0;endSize=8;strokeWidth=1;shadow=0;labelBackgroundColor=none;edgeStyle=orthogonalEdgeStyle;entryX=0.5;entryY=0;entryDx=0;entryDy=0;" parent="WIyWlLk6GJQsqaUBKTNV-1" edge="1">
          <mxGeometry x="0.3333" y="20" relative="1" as="geometry">
            <mxPoint as="offset" />
            <mxPoint x="459.5" y="660" as="sourcePoint" />
            <mxPoint x="460" y="730" as="targetPoint" />
            <Array as="points" />
          </mxGeometry>
        </mxCell>
        <mxCell id="f26DTYK5r1eWWfR7GQ5q-151" value="T2.R" style="rounded=1;whiteSpace=wrap;html=1;fontSize=12;glass=0;strokeWidth=1;shadow=0;" parent="WIyWlLk6GJQsqaUBKTNV-1" vertex="1">
          <mxGeometry x="400" y="630" width="120" height="40" as="geometry" />
        </mxCell>
        <mxCell id="f26DTYK5r1eWWfR7GQ5q-156" value="" style="rounded=0;html=1;jettySize=auto;orthogonalLoop=1;fontSize=11;endArrow=block;endFill=0;endSize=8;strokeWidth=1;shadow=0;labelBackgroundColor=none;edgeStyle=orthogonalEdgeStyle;entryX=0.5;entryY=0;entryDx=0;entryDy=0;" parent="WIyWlLk6GJQsqaUBKTNV-1" target="f26DTYK5r1eWWfR7GQ5q-153" edge="1">
          <mxGeometry x="0.3333" y="20" relative="1" as="geometry">
            <mxPoint as="offset" />
            <mxPoint x="954.5" y="650" as="sourcePoint" />
            <mxPoint x="955" y="720" as="targetPoint" />
            <Array as="points" />
          </mxGeometry>
        </mxCell>
        <mxCell id="f26DTYK5r1eWWfR7GQ5q-153" value="T1.R" style="rounded=1;whiteSpace=wrap;html=1;fontSize=12;glass=0;strokeWidth=1;shadow=0;" parent="WIyWlLk6GJQsqaUBKTNV-1" vertex="1">
          <mxGeometry x="895" y="630" width="120" height="40" as="geometry" />
        </mxCell>
        <mxCell id="f26DTYK5r1eWWfR7GQ5q-157" value="" style="rounded=0;html=1;jettySize=auto;orthogonalLoop=1;fontSize=11;endArrow=block;endFill=0;endSize=8;strokeWidth=1;shadow=0;labelBackgroundColor=none;edgeStyle=orthogonalEdgeStyle;" parent="WIyWlLk6GJQsqaUBKTNV-1" edge="1">
          <mxGeometry x="0.3333" y="20" relative="1" as="geometry">
            <mxPoint as="offset" />
            <mxPoint x="954.5" y="670" as="sourcePoint" />
            <mxPoint x="955" y="730" as="targetPoint" />
            <Array as="points" />
          </mxGeometry>
        </mxCell>
        <mxCell id="Gd4iHu1AGueRKKJ7a868-2" value="Version 0.1&lt;div&gt;01Mar2024&lt;/div&gt;" style="rounded=1;whiteSpace=wrap;html=1;fillColor=#b0e3e6;strokeColor=#0e8088;" parent="WIyWlLk6GJQsqaUBKTNV-1" vertex="1">
          <mxGeometry x="330" y="80" width="120" height="60" as="geometry" />
        </mxCell>
      </root>
    </mxGraphModel>
  </diagram>
</mxfile>
